<!-- icon666.com - MILLIONS vector ICONS FREE --><svg version="1.1" id="Capa_1" xmlns="http://www.w3.org/2000/svg" xmlns:xlink="http://www.w3.org/1999/xlink" x="0px" y="0px" viewBox="0 0 948.343 948.343" style="enable-background:new 0 0 948.343 948.343;" xml:space="preserve"><g><g><path d="M898.308,288.391v-32.5l0,0v-32.5H757.072l-25.266,98.923l-148.867-0.051l91.08-126.19H550.863V0h-278.14v196.073H149.566 l90.995,126.074l-190.527-0.065l72.332,385.904h578.027l97.596-382.134l9.566-37.461h44.148H898.308L898.308,288.391z M176.315,642.986l-47.96-255.877l159.133,0.054l124.304,172.225l124.245-172.14l179.17,0.061L649.91,642.986H176.315 L176.315,642.986z M337.723,65h148.14v196.073h61.08l-44.145,61.163l-23.451,32.492l-23.453,32.492l-44.103,61.104l-44.123-61.134 l-23.463-32.507l-23.463-32.508l-44.1-61.101h61.079V65L337.723,65z" fill="#000000" style="fill: rgb(255, 255, 255);"></path><path d="M610.48,948.343c57.895,0,104.996-47.1,104.996-104.995c0-57.895-47.102-104.995-104.996-104.995H213.105 c-57.894,0-104.995,47.101-104.995,104.995c0,57.896,47.101,104.995,104.995,104.995s104.995-47.1,104.995-104.995 c0-14.154-2.822-27.661-7.922-39.995H513.41c-5.1,12.334-7.922,25.841-7.922,39.995 C505.486,901.243,552.587,948.343,610.48,948.343z M253.1,843.348c0,22.053-17.941,39.995-39.995,39.995 c-22.054,0-39.995-17.942-39.995-39.995s17.941-39.995,39.995-39.995C235.158,803.353,253.1,821.295,253.1,843.348z M650.476,843.348c0,22.053-17.941,39.995-39.996,39.995c-22.053,0-39.994-17.942-39.994-39.995s17.941-39.995,39.994-39.995 C632.535,803.353,650.476,821.295,650.476,843.348z" fill="#000000" style="fill: rgb(255, 255, 255);"></path></g></g></svg>